<?xml version="1.0" encoding="utf-8"?>
<!-- Generator: Adobe Illustrator 23.0.2, SVG Export Plug-In . SVG Version: 6.00 Build 0)  -->
<svg version="1.1" id="Слой_1" xmlns="http://www.w3.org/2000/svg" xmlns:xlink="http://www.w3.org/1999/xlink" x="0px" y="0px"
	 viewBox="0 0 127.1 102.2" style="enable-background:new 0 0 127.1 102.2;" xml:space="preserve">
<style type="text/css">
	.st0{fill:none;}
	.st1{fill:#99CC00;}
	.st2{fill:#FFFFFF;}
</style>
<path class="st0" d="M63.5,0"/>
<path class="st0" d="M63.5,0"/>
<path class="st1" d="M77.2,8c-12,3.9-13.7,21.9-13.7,21.9S61.8,11.9,49.8,8c0,0-9-2.6-17.8,5.8c1.3-0.2,12.3-3.9,18.8-0.7
	C58,16.6,62,26.3,63.5,32.3c1.5-6,5.5-15.7,12.7-19.2c6.5-3.2,17.5,0.5,18.8,0.7C86.2,5.4,77.2,8,77.2,8z"/>
<path class="st1" d="M63.5,6.8"/>
<path class="st1" d="M63.5,5.5c-5.3,0-7.7,1.3-7.7,1.3c4.9,0.1,7.7,12.3,7.7,12.3s2.8-12.2,7.7-12.3C71.2,6.8,68.8,5.5,63.5,5.5z"/>
<g>
	<g>
		<path class="st2" d="M13.7,54.2V42.7h1.7v5.4l4.8-5.4h2.1l-5.1,5.6l5.5,5.9h-2.1l-5.1-5.5v5.5H13.7z"/>
		<path class="st2" d="M34.2,54.2h-1.7v-8.6l-5.7,8.6h-1.7V42.7h1.7v8.6l5.7-8.6h1.7V54.2z"/>
		<path class="st2" d="M36.4,41.2v-1.6H38v1.6H36.4z M37.9,54.2V42.7h1.7v11.5H37.9z M39.6,41.2v-1.6h1.6v1.6H39.6z"/>
		<path class="st2" d="M43.4,54.2V42.7h4.5c0.7,0,1.3,0.1,1.8,0.4c0.5,0.3,0.9,0.7,1.1,1.2s0.4,1,0.4,1.5c0,0.6-0.2,1.2-0.5,1.6
			s-0.7,0.8-1.3,0.9l0-0.4c0.7,0.2,1.3,0.5,1.7,1.1c0.4,0.5,0.6,1.1,0.6,1.8c0,0.7-0.1,1.3-0.4,1.8c-0.3,0.5-0.7,0.9-1.2,1.2
			c-0.5,0.3-1.1,0.4-1.9,0.4H43.4z M45,47.4h2.8c0.3,0,0.6-0.1,0.8-0.2s0.4-0.3,0.6-0.5c0.1-0.2,0.2-0.5,0.2-0.9
			c0-0.4-0.1-0.8-0.4-1.1c-0.3-0.3-0.7-0.4-1.2-0.4H45V47.4z M45,52.6h3c0.4,0,0.7-0.1,1-0.2c0.3-0.1,0.5-0.4,0.7-0.6s0.3-0.6,0.3-1
			c0-0.3-0.1-0.7-0.2-0.9c-0.2-0.3-0.4-0.5-0.7-0.7c-0.3-0.2-0.6-0.2-1-0.2H45V52.6z"/>
		<path class="st2" d="M59.5,54.4c-1.2,0-2.1-0.3-2.9-0.8s-1.4-1.2-1.9-2.1s-0.6-1.9-0.6-3.1c0-1.2,0.2-2.2,0.6-3.1s1-1.6,1.9-2.1
			s1.8-0.8,2.9-0.8c1.3,0,2.4,0.3,3.3,1s1.5,1.6,1.8,2.7l-1.7,0.5c-0.2-0.8-0.6-1.4-1.2-1.9c-0.6-0.5-1.3-0.7-2.2-0.7
			c-0.8,0-1.5,0.2-2,0.6c-0.5,0.4-1,0.9-1.2,1.5c-0.3,0.7-0.4,1.4-0.4,2.3c0,0.9,0.1,1.7,0.4,2.3c0.3,0.7,0.7,1.2,1.2,1.5
			c0.5,0.4,1.2,0.6,2,0.6c0.9,0,1.7-0.2,2.2-0.7c0.6-0.5,1-1.1,1.2-1.9l1.7,0.5c-0.3,1.1-0.9,2-1.8,2.7S60.8,54.4,59.5,54.4z"/>
		<path class="st2" d="M67.7,54.2V42.7h1.7v4.1h3c0.1,0,0.2,0,0.4,0c0.2,0,0.3,0,0.5,0.1c0.6,0.1,1.2,0.3,1.6,0.7
			c0.4,0.3,0.8,0.8,1,1.3c0.2,0.5,0.3,1.1,0.3,1.7c0,0.6-0.1,1.2-0.3,1.7c-0.2,0.5-0.5,0.9-1,1.3s-1,0.6-1.6,0.7c-0.1,0-0.3,0-0.5,0
			s-0.3,0-0.4,0H67.7z M69.4,52.6h2.9c0.1,0,0.2,0,0.3,0s0.3,0,0.4-0.1c0.3-0.1,0.6-0.2,0.8-0.4c0.2-0.2,0.4-0.5,0.4-0.7
			c0.1-0.3,0.1-0.6,0.1-0.8s0-0.6-0.1-0.8c-0.1-0.3-0.2-0.5-0.4-0.7c-0.2-0.2-0.5-0.4-0.8-0.4c-0.1,0-0.2-0.1-0.4-0.1
			c-0.1,0-0.2,0-0.3,0h-2.9V52.6z"/>
		<path class="st2" d="M79.3,54.2V42.7h1.7v5.4l4.8-5.4h2.1l-5.1,5.6l5.5,5.9h-2.1l-5.1-5.5v5.5H79.3z"/>
		<path class="st2" d="M99.7,54.2H98v-8.6l-5.7,8.6h-1.7V42.7h1.7v8.6l5.7-8.6h1.7V54.2z"/>
		<path class="st2" d="M103.3,54.2V42.7h1.7v8.6l5.7-8.6h1.7v11.5h-1.7v-8.6l-5.7,8.6H103.3z M107.9,41.7c-0.4,0-0.8-0.1-1.2-0.3
			s-0.6-0.5-0.8-0.8s-0.3-0.7-0.3-1.2h1.3c0,0.3,0.1,0.5,0.3,0.7c0.2,0.2,0.4,0.3,0.7,0.3c0.3,0,0.5-0.1,0.7-0.3s0.3-0.4,0.3-0.7
			h1.3c0,0.4-0.1,0.8-0.3,1.2s-0.5,0.6-0.8,0.8S108.3,41.7,107.9,41.7z"/>
		<path class="st2" d="M7,72.2V60.7h7.5v1.6H8.7V65h3c0.1,0,0.2,0,0.4,0c0.2,0,0.3,0,0.5,0c0.6,0.1,1.2,0.3,1.6,0.6
			c0.4,0.3,0.8,0.8,1,1.3c0.2,0.5,0.3,1.1,0.3,1.7s-0.1,1.2-0.3,1.7c-0.2,0.5-0.5,0.9-1,1.3c-0.4,0.3-1,0.5-1.6,0.6
			c-0.1,0-0.3,0-0.5,0c-0.2,0-0.3,0-0.4,0H7z M8.7,70.6h2.9c0.1,0,0.2,0,0.4,0s0.3,0,0.4,0c0.5-0.1,0.9-0.4,1.1-0.7
			c0.2-0.4,0.3-0.8,0.3-1.2c0-0.4-0.1-0.8-0.3-1.2c-0.2-0.4-0.6-0.6-1.1-0.7c-0.1,0-0.2,0-0.4-0.1c-0.1,0-0.2,0-0.4,0H8.7V70.6z"/>
		<path class="st2" d="M23.2,72.4c-1.2,0-2.1-0.3-2.9-0.8s-1.4-1.2-1.9-2.1s-0.6-1.9-0.6-3.1s0.2-2.2,0.6-3.1s1-1.6,1.9-2.1
			s1.8-0.8,2.9-0.8c1.1,0,2.1,0.3,2.9,0.8c0.8,0.5,1.4,1.2,1.9,2.1s0.6,1.9,0.6,3.1s-0.2,2.2-0.6,3.1s-1,1.6-1.9,2.1
			C25.3,72.2,24.3,72.4,23.2,72.4z M23.2,70.8c0.8,0,1.5-0.2,2-0.5c0.5-0.4,0.9-0.9,1.2-1.6s0.4-1.4,0.4-2.3s-0.1-1.6-0.4-2.3
			c-0.3-0.7-0.7-1.2-1.2-1.5c-0.5-0.4-1.2-0.6-2-0.6c-0.8,0-1.5,0.2-2,0.5c-0.5,0.4-0.9,0.9-1.2,1.6c-0.3,0.7-0.4,1.4-0.4,2.3
			s0.1,1.6,0.4,2.3c0.3,0.7,0.7,1.2,1.2,1.5C21.7,70.7,22.3,70.8,23.2,70.8z"/>
		<path class="st2" d="M34.4,72.2v-9.9h-3.8v-1.6h9.3v1.6h-3.8v9.9H34.4z"/>
		<path class="st2" d="M41.7,72.2l3.7-11.5h2.4l3.7,11.5h-1.7l-3.4-10.5h0.4l-3.4,10.5H41.7z M43.7,69.6V68h6v1.6H43.7z"/>
		<path class="st2" d="M54.4,72.2V60.7h1.7v5h5.8v-5h1.7v11.5h-1.7v-5h-5.8v5H54.4z"/>
		<path class="st2" d="M67.3,72.2V60.7H69v11.5H67.3z"/>
		<path class="st2" d="M79.4,72.2V67l0.3,0.5c-0.3,0.3-0.8,0.5-1.3,0.6c-0.5,0.2-1.1,0.2-1.8,0.2c-1,0-1.8-0.2-2.3-0.6
			s-1-0.9-1.3-1.6s-0.4-1.4-0.4-2.3v-3.3h1.7v2.7c0,0.4,0,0.9,0.1,1.3c0.1,0.4,0.2,0.8,0.4,1.1c0.2,0.3,0.4,0.6,0.8,0.7
			s0.8,0.3,1.4,0.3c0.7,0,1.2-0.1,1.7-0.3c0.5-0.2,0.8-0.4,1-0.7l-0.2,1v-6h1.7v11.5H79.4z"/>
		<path class="st2" d="M84.7,72.2V60.7h1.7v5h5.8v-5h1.7v11.5h-1.7v-5h-5.8v5H84.7z"/>
		<path class="st2" d="M106.5,72.2h-1.7v-8.6l-5.7,8.6h-1.7V60.7h1.7v8.6l5.7-8.6h1.7V72.2z"/>
		<path class="st2" d="M110,72.2V60.7h1.7v8.6l5.7-8.6h1.7v11.5h-1.7v-8.6l-5.7,8.6H110z M114.6,59.7c-0.4,0-0.8-0.1-1.2-0.3
			s-0.6-0.5-0.8-0.8s-0.3-0.7-0.3-1.2h1.3c0,0.3,0.1,0.5,0.3,0.7c0.2,0.2,0.4,0.3,0.7,0.3c0.3,0,0.5-0.1,0.7-0.3
			c0.2-0.2,0.3-0.4,0.3-0.7h1.3c0,0.4-0.1,0.8-0.3,1.2s-0.5,0.6-0.8,0.8S115,59.7,114.6,59.7z"/>
		<path class="st2" d="M50.5,90.4c-1.2,0-2.1-0.3-2.9-0.8s-1.4-1.2-1.9-2.1s-0.6-1.9-0.6-3.1s0.2-2.2,0.6-3.1c0.4-0.9,1-1.6,1.9-2.1
			s1.8-0.8,2.9-0.8c1.3,0,2.4,0.3,3.3,1s1.5,1.6,1.8,2.7L54,82.6c-0.2-0.8-0.6-1.4-1.2-1.9c-0.6-0.5-1.3-0.7-2.2-0.7
			c-0.8,0-1.5,0.2-2,0.6s-1,0.9-1.2,1.5c-0.3,0.7-0.4,1.4-0.4,2.3c0,0.9,0.1,1.7,0.4,2.3c0.3,0.7,0.7,1.2,1.2,1.5
			c0.5,0.4,1.2,0.6,2,0.6c0.9,0,1.7-0.2,2.2-0.7c0.6-0.5,1-1.1,1.2-1.9l1.7,0.5c-0.3,1.1-0.9,2-1.8,2.7C53,90.1,51.9,90.4,50.5,90.4
			z"/>
		<path class="st2" d="M58,90.2l3.7-11.5h2.4l3.7,11.5h-1.7l-3.4-10.5h0.4l-3.4,10.5H58z M59.9,87.6V86h6v1.6H59.9z"/>
		<path class="st2" d="M70.1,92.1v-3.5c0.4,0,0.7-0.1,1-0.3s0.5-0.5,0.6-0.8c0.2-0.3,0.3-0.7,0.4-1.2c0.1-0.4,0.1-0.9,0.2-1.4
			c0.1-0.7,0.1-1.3,0.2-2c0-0.6,0.1-1.3,0.1-2c0-0.7,0.1-1.4,0.1-2.2l7.4,0v9.9h0.9v3.5h-1.7v-1.9h-7.4v1.9H70.1z M72.8,88.6h5.5
			v-8.4l-4.2,0c0,0.6-0.1,1.1-0.1,1.7c0,0.5-0.1,1.1-0.1,1.6c0,0.5-0.1,1.1-0.1,1.7c-0.1,0.6-0.1,1.1-0.2,1.5
			c-0.1,0.4-0.2,0.8-0.3,1.1C73.2,88.1,73,88.4,72.8,88.6z"/>
	</g>
</g>
</svg>
